<?xml version="1.0" encoding="UTF-8"?>
<svg xmlns="http://www.w3.org/2000/svg" xmlns:xlink="http://www.w3.org/1999/xlink" version="1.1" x="0px" y="0px"
    viewBox="0 0 32 32" xml:space="preserve" style="fill:#fcfcfc">
    <path
        d="M.32 16c0 8.84 7.16 16 16 16 9.24 0 15.359-6.5 15.359-15.64 0-1.17-.109-2.29-.31-3.36H16.32v6.24h8.721c-.671 3.76-3.931 6.5-8.721 6.5-5.28 0-9.57-4.471-9.57-9.75 0-5.28 4.29-9.74 9.57-9.74 2.38 0 4.51.82 6.189 2.42v.01l4.511-4.51C24.25 1.59 20.641 0 16.32 0c-8.84 0-16 7.16-16 16z"
        id="Full_copy" />
    <metadata>
        <rdf:RDF xmlns:rdf="http://www.w3.org/1999/02/22-rdf-syntax-ns#"
            xmlns:rdfs="http://www.w3.org/2000/01/rdf-schema#" xmlns:dc="http://purl.org/dc/elements/1.1/">
            <rdf:Description about="https://iconscout.com/legal#licenses" dc:title="google,share,online,social,media"
                dc:description="google,share,online,social,media" dc:publisher="Iconscout" dc:date="2017-09-15"
                dc:format="image/svg+xml" dc:language="en">
                <dc:creator>
                    <rdf:Bag>
                        <rdf:li>Epicflaticon by Alfredo</rdf:li>
                    </rdf:Bag>
                </dc:creator>
            </rdf:Description>
        </rdf:RDF>
    </metadata>
</svg>