<svg xmlns="http://www.w3.org/2000/svg" width="19" height="19" viewBox="0 0 19 19">
    <g fill="none" fill-rule="evenodd">
        <g fill="#000" fill-rule="nonzero">
            <g>
                <path d="M16.218 2.783c-3.713-3.71-9.722-3.711-13.435 0C-.202 5.767-.767 10.204.998 13.737L.02 18.04c-.127.56.374 1.061.934.934l4.304-.978C11.516 21.118 19 16.596 19 9.497c0-2.536-.988-4.92-2.782-6.714zm-4.736 9.079H5.537c-.431 0-.78-.35-.78-.78 0-.431.349-.78.78-.78h5.945c.43 0 .78.349.78.78 0 .43-.35.78-.78.78zm1.982-3.17H5.537c-.431 0-.78-.349-.78-.78 0-.43.349-.78.78-.78h7.927c.43 0 .78.35.78.78 0 .431-.35.78-.78.78z" transform="translate(-1175 -225) translate(1175 225)"/>
            </g>
        </g>
    </g>
</svg>
